<svg width="44" height="46" viewBox="0 0 44 46" fill="none" xmlns="http://www.w3.org/2000/svg">
<rect width="43.105" height="45.8418" rx="21.5525" fill="#ECEDF2"/>
<path d="M29.4858 21.9411L30.0906 21.3364L28.2762 19.5225L24.9524 16.1997L23.138 14.3858L22.5332 14.9904L21.3236 16.1997L10.6619 26.8584C10.1053 27.4149 9.69854 28.1051 9.47375 28.8596L7.57905 35.3019C7.44524 35.7514 7.56835 36.2383 7.90554 36.57C8.24273 36.9018 8.72443 37.0249 9.17402 36.8964L15.6128 35.0023C16.3674 34.7775 17.0579 34.3709 17.6145 33.8144L28.2762 23.1557L29.4858 21.9411ZM16.0891 30.9517L15.6021 32.1664C15.388 32.3322 15.1471 32.4553 14.8902 32.5356L10.7048 33.7662L11.9358 29.5873C12.0107 29.3251 12.1392 29.0843 12.3051 28.8757L13.52 28.3887V30.101C13.52 30.5718 13.9054 30.9571 14.3764 30.9571H16.0891V30.9517ZM26.9381 10.5814L26.1674 11.3573L24.9578 12.5665L24.3476 13.1712L26.1621 14.9851L29.4858 18.3079L31.3002 20.1218L31.905 19.5172L33.1146 18.3079L33.8907 17.532C35.2288 16.1943 35.2288 14.0273 33.8907 12.6896L31.7873 10.5814C30.4492 9.2437 28.2815 9.2437 26.9435 10.5814H26.9381ZM24.4012 19.5707L16.6939 27.2758C16.3621 27.6075 15.8162 27.6075 15.4843 27.2758C15.1525 26.944 15.1525 26.3982 15.4843 26.0665L23.1916 18.3614C23.5234 18.0297 24.0693 18.0297 24.4012 18.3614C24.733 18.6932 24.733 19.2389 24.4012 19.5707Z" fill="#6C1DE9"/>
</svg>
